<?xml version="1.0" encoding="iso-8859-1"?>
<!-- Uploaded to: SVG Repo, www.svgrepo.com, Generator: SVG Repo Mixer Tools -->
<svg fill="#000000" height="800px" width="800px" version="1.1" id="Layer_1" xmlns="http://www.w3.org/2000/svg" xmlns:xlink="http://www.w3.org/1999/xlink" 
	 viewBox="0 0 512.001 512.001" xml:space="preserve">
<g>
	<g>
		<g>
			<path d="M438.818,160.882C337.09-62.944,0,9.426,0,255.703c0,186.486,210.387,293.76,361.24,188.196
				c10.713,18.313,18.262,30.393,18.687,31.071c8.642,13.807,28.798,13.8,37.435-0.006c25.785-41.199,94.64-158.045,94.64-208.076
				C512,219.486,482.404,177.382,438.818,160.882z M229.633,70.23c16.654,0,38.848,24.369,53.846,71.241h-107.68
				C190.784,94.599,212.975,70.23,229.633,70.23z M149.797,88.272c-7.844,15.26-14.599,33.08-20.049,53.198h-46.25
				C101.08,119.004,123.644,100.756,149.797,88.272z M57.86,185.631h62.688c-2.354,15.537-3.904,31.566-4.632,47.992H45.451
				C47.393,217.082,51.548,201.037,57.86,185.631z M57.86,325.775c-6.312-15.405-10.467-31.451-12.409-47.992h70.465
				c0.729,16.428,2.279,32.458,4.632,47.992H57.86z M83.498,369.935h46.252c5.451,20.118,12.206,37.938,20.05,53.198
				C123.65,410.651,101.081,392.403,83.498,369.935z M229.633,441.176c-16.657,0-38.845-24.365-53.834-71.241h107.679
				C268.481,416.806,246.288,441.176,229.633,441.176z M294.01,325.775H165.27c-2.62-15.424-4.363-31.455-5.168-47.992h125.982
				c1.688,11.891,5.666,24.64,9.789,35.864C295.316,317.741,294.684,321.779,294.01,325.775z M290.209,233.623H160.102
				c0.807-16.534,2.548-32.564,5.17-47.992h128.755c1.602,9.5,2.876,19.3,3.805,29.319
				C294.72,220.959,292.089,227.488,290.209,233.623z M375.755,141.471h-46.227c-5.454-20.119-12.213-37.938-20.061-53.2
				C335.636,100.761,358.181,119.001,375.755,141.471z M309.484,423.106c6.4-12.45,12.078-26.596,16.912-42.311
				c3.193,6.199,8.196,15.658,12.988,24.449C329.963,412.161,319.943,418.117,309.484,423.106z M398.636,420.363
				c-16.117-27.6-69.22-121.539-69.22-153.479c0-37.842,30.557-69.206,69.221-69.206c38.527,0,69.202,31.329,69.202,69.211
				C467.84,298.867,414.875,392.54,398.636,420.363z"/>
			<path d="M398.639,246.585c-11.302,0-20.315,9.177-20.315,20.315c0,11.22,9.096,20.315,20.315,20.315s20.315-9.096,20.315-20.315
				C418.954,255.766,409.944,246.585,398.639,246.585z"/>
		</g>
	</g>
</g>
</svg>